<?xml version="1.0" encoding="UTF-8" standalone="no"?>
<!-- Created with Inkscape (http://www.inkscape.org/) -->

<svg
   xmlns:dc="http://purl.org/dc/elements/1.1/"
   xmlns:cc="http://creativecommons.org/ns#"
   xmlns:rdf="http://www.w3.org/1999/02/22-rdf-syntax-ns#"
   xmlns:svg="http://www.w3.org/2000/svg"
   xmlns="http://www.w3.org/2000/svg"
   xmlns:sodipodi="http://sodipodi.sourceforge.net/DTD/sodipodi-0.dtd"
   xmlns:inkscape="http://www.inkscape.org/namespaces/inkscape"
   id="svg4136"
   version="1.1"
   inkscape:version="0.91 r13725"
   xml:space="preserve"
   width="482.34647"
   height="500.62036"
   viewBox="0 0 482.34647 500.62036"
   sodipodi:docname="BasisSchichten.svg"><metadata
     id="metadata4142"><rdf:RDF><cc:Work
         rdf:about=""><dc:format>image/svg+xml</dc:format><dc:type
           rdf:resource="http://purl.org/dc/dcmitype/StillImage" /><dc:title></dc:title></cc:Work></rdf:RDF></metadata><defs
     id="defs4140" /><sodipodi:namedview
     pagecolor="#ffffff"
     bordercolor="#666666"
     borderopacity="1"
     objecttolerance="10"
     gridtolerance="10"
     guidetolerance="10"
     inkscape:pageopacity="0"
     inkscape:pageshadow="2"
     inkscape:window-width="1920"
     inkscape:window-height="1148"
     id="namedview4138"
     showgrid="false"
     inkscape:zoom="1.9555737"
     inkscape:cx="241.17323"
     inkscape:cy="250.31018"
     inkscape:window-x="1358"
     inkscape:window-y="-8"
     inkscape:window-maximized="1"
     inkscape:current-layer="g4144" /><g
     id="g4144"
     inkscape:groupmode="layer"
     inkscape:label="BasisSchichtenPDF"
     transform="matrix(1.25,0,0,-1.25,0,500.62035)"><g
       id="g4146"><g
         id="g4148"
         transform="matrix(1,0,0,-1,0,400.49628)"><path
           d="m 17.938,1.602 350,0 c 9.05,0 16.339,7.285 16.339,16.336 l 0,63.636 c 0,9.055 -7.289,16.34 -16.339,16.34 l -350,0 c -9.051,0 -16.336,-7.285 -16.336,-16.34 l 0,-63.636 C 1.602,8.887 8.887,1.602 17.938,1.602 Z"
           style="fill:#ffff76;fill-opacity:1;fill-rule:nonzero;stroke:#000000;stroke-width:3.20000005;stroke-linecap:round;stroke-linejoin:round;stroke-miterlimit:4;stroke-dasharray:none;stroke-opacity:1"
           id="path4150"
           inkscape:connector-curvature="0" /></g><g
         id="g4152"
         transform="matrix(1,0,0,-1,0,400.49628)"><path
           d="m 17.938,152.09 350,0 c 9.05,0 16.339,7.289 16.339,16.34 l 0,63.636 c 0,9.051 -7.289,16.34 -16.339,16.34 l -350,0 c -9.051,0 -16.336,-7.289 -16.336,-16.34 l 0,-63.636 c 0,-9.051 7.285,-16.34 16.336,-16.34 z"
           style="fill:#a0afff;fill-opacity:1;fill-rule:nonzero;stroke:#000000;stroke-width:3.20000005;stroke-linecap:round;stroke-linejoin:round;stroke-miterlimit:4;stroke-dasharray:none;stroke-opacity:1"
           id="path4154"
           inkscape:connector-curvature="0" /></g><g
         id="g4156"
         transform="matrix(1,0,0,-1,0,400.49628)"><path
           d="m 17.938,302.582 350,0 c 9.05,0 16.339,7.289 16.339,16.34 l 0,63.637 c 0,9.05 -7.289,16.336 -16.339,16.336 l -350,0 c -9.051,0 -16.336,-7.286 -16.336,-16.336 l 0,-63.637 c 0,-9.051 7.285,-16.34 16.336,-16.34 z"
           style="fill:#88ff6d;fill-opacity:1;fill-rule:nonzero;stroke:#000000;stroke-width:3.20000005;stroke-linecap:round;stroke-linejoin:round;stroke-miterlimit:4;stroke-dasharray:none;stroke-opacity:1"
           id="path4158"
           inkscape:connector-curvature="0" /></g><path
         d="m 68.582,282.375 13.086,0 0,-25.762 -13.086,0 0,25.762 z"
         style="fill:#000000;fill-opacity:1;fill-rule:nonzero;stroke:none"
         id="path4160"
         inkscape:connector-curvature="0" /><path
         d="m 60.09,280.172 15.035,15.035 15.035,-15.035 -30.07,0 z"
         style="fill:#000000;fill-opacity:1;fill-rule:nonzero;stroke:none"
         id="path4162"
         inkscape:connector-curvature="0" /><path
         d="m 302.488,295.207 13.086,0 0,-25.762 -13.086,0 0,25.762 z"
         style="fill:#000000;fill-opacity:1;fill-rule:nonzero;stroke:none"
         id="path4164"
         inkscape:connector-curvature="0" /><path
         d="m 324.066,271.649 -15.035,-15.036 -15.035,15.036 30.07,0 z"
         style="fill:#000000;fill-opacity:1;fill-rule:nonzero;stroke:none"
         id="path4166"
         inkscape:connector-curvature="0" /><path
         d="m 25.68,268.949 19.777,0 c 5.242,0 9.461,-4.218 9.461,-9.457 l 0,-19.781 c 0,-5.238 -4.219,-9.457 -9.461,-9.457 l -19.777,0 c -5.242,0 -9.461,4.219 -9.461,9.457 l 0,19.781 c 0,5.239 4.219,9.457 9.461,9.457 z"
         style="fill:#5c4bff;fill-opacity:1;fill-rule:nonzero;stroke:none"
         id="path4168"
         inkscape:connector-curvature="0" /><text
         transform="matrix(1,0,0,-1,20.416618,242.33099)"
         style="font-variant:normal;font-weight:normal;font-size:20px;font-family:Verdana;-inkscape-font-specification:Verdana;writing-mode:lr-tb;fill:#000000;fill-opacity:1;fill-rule:nonzero;stroke:none"
         id="text4170"><tspan
           x="0 15.4"
           y="0"
           sodipodi:role="line"
           id="tspan4172">DB</tspan></text>
<path
         d="m 339.559,270.028 19.781,0 c 5.238,0 9.457,-4.219 9.457,-9.461 l 0,-19.778 c 0,-5.242 -4.219,-9.461 -9.457,-9.461 l -19.781,0 c -5.239,0 -9.457,4.219 -9.457,9.461 l 0,19.778 c 0,5.242 4.218,9.461 9.457,9.461 z"
         style="fill:#5c4bff;fill-opacity:1;fill-rule:nonzero;stroke:none"
         id="path4174"
         inkscape:connector-curvature="0" /><text
         transform="matrix(1,0,0,-1,334.29788,243.40731)"
         style="font-variant:normal;font-weight:normal;font-size:20px;font-family:Verdana;-inkscape-font-specification:Verdana;writing-mode:lr-tb;fill:#000000;fill-opacity:1;fill-rule:nonzero;stroke:none"
         id="text4176"><tspan
           x="0 15.4"
           y="0"
           sodipodi:role="line"
           id="tspan4178">DB</tspan></text>
<path
         d="m 25.68,165.113 19.777,0 c 5.242,0 9.461,-4.218 9.461,-9.46 l 0,-19.778 c 0,-5.242 -4.219,-9.461 -9.461,-9.461 l -19.777,0 c -5.242,0 -9.461,4.219 -9.461,9.461 l 0,19.778 c 0,5.242 4.219,9.46 9.461,9.46 z"
         style="fill:#5c4bff;fill-opacity:1;fill-rule:nonzero;stroke:none"
         id="path4180"
         inkscape:connector-curvature="0" /><text
         transform="matrix(1,0,0,-1,20.416618,138.49357)"
         style="font-variant:normal;font-weight:normal;font-size:20px;font-family:Verdana;-inkscape-font-specification:Verdana;writing-mode:lr-tb;fill:#000000;fill-opacity:1;fill-rule:nonzero;stroke:none"
         id="text4182"><tspan
           x="0 15.4"
           y="0"
           sodipodi:role="line"
           id="tspan4184">DB</tspan></text>
<path
         d="m 339.559,165.973 19.781,0 c 5.238,0 9.457,-4.219 9.457,-9.461 l 0,-19.777 c 0,-5.243 -4.219,-9.461 -9.457,-9.461 l -19.781,0 c -5.239,0 -9.457,4.218 -9.457,9.461 l 0,19.777 c 0,5.242 4.218,9.461 9.457,9.461 z"
         style="fill:#5c4bff;fill-opacity:1;fill-rule:nonzero;stroke:none"
         id="path4186"
         inkscape:connector-curvature="0" /><text
         transform="matrix(1,0,0,-1,334.29788,139.35352)"
         style="font-variant:normal;font-weight:normal;font-size:20px;font-family:Verdana;-inkscape-font-specification:Verdana;writing-mode:lr-tb;fill:#000000;fill-opacity:1;fill-rule:nonzero;stroke:none"
         id="text4188"><tspan
           x="0 15.4"
           y="0"
           sodipodi:role="line"
           id="tspan4190">DB</tspan></text>
<path
         d="m 304.207,131.59 13.086,0 0,-25.762 -13.086,0 0,25.762 z"
         style="fill:#000000;fill-opacity:1;fill-rule:nonzero;stroke:none"
         id="path4192"
         inkscape:connector-curvature="0" /><path
         d="m 325.785,129.387 -15.035,15.035 -15.035,-15.035 30.07,0 z"
         style="fill:#000000;fill-opacity:1;fill-rule:nonzero;stroke:none"
         id="path4194"
         inkscape:connector-curvature="0" /><path
         d="m 70.305,144.422 13.082,0 0,-25.762 -13.082,0 0,25.762 z"
         style="fill:#000000;fill-opacity:1;fill-rule:nonzero;stroke:none"
         id="path4196"
         inkscape:connector-curvature="0" /><path
         d="m 61.809,120.863 15.035,-15.035 15.039,15.035 -30.074,0 z"
         style="fill:#000000;fill-opacity:1;fill-rule:nonzero;stroke:none"
         id="path4198"
         inkscape:connector-curvature="0" /><text
         transform="matrix(1,0,0,-1,52.713001,340.39701)"
         style="font-variant:normal;font-weight:normal;font-size:28px;font-family:Verdana;-inkscape-font-specification:Verdana;writing-mode:lr-tb;fill:#000000;fill-opacity:1;fill-rule:nonzero;stroke:none"
         id="text4200"><tspan
           x="0 27.664 44.324001 61.768002 71.596001 79.183998 96.879997 114.324 132.02 149.716 167.16 181.72 196.28 210.84 228.536 236.20799 250.76801 268.46399"
           y="0"
           sodipodi:role="line"
           id="tspan4202">Wegfindungsschicht</tspan></text>
<text
         transform="matrix(1,0,0,-1,49.18468,190.60229)"
         style="font-variant:normal;font-weight:normal;font-size:24px;font-family:Verdana;-inkscape-font-specification:Verdana;writing-mode:lr-tb;fill:#000000;fill-opacity:1;fill-rule:nonzero;stroke:none"
         id="text4204"><tspan
           x="0 16.608 31.152 54.48 77.807999 92.975998 108.144 114.72 128.90401 143.304 152.75999 159.26401 173.808 188.976 201.45599 213.936 226.416 241.584 248.16 260.64001 275.80801"
           y="0"
           sodipodi:role="line"
           id="tspan4206">Kommunikationsschicht</tspan></text>
<text
         transform="matrix(1,0,0,-1,44.195426,61.774153)"
         style="font-variant:normal;font-weight:normal;font-size:28px;font-family:Verdana;-inkscape-font-specification:Verdana;writing-mode:lr-tb;fill:#000000;fill-opacity:1;fill-rule:nonzero;stroke:none"
         id="text4208"><tspan
           x="0 16.072001 32.872002 50.568001 62.495998 77.195999 93.856003 111.552 128.996 143.556 154.588 171.248 188.944 205.604 217.616 235.312 253.008 270.452 285.01199"
           y="0"
           sodipodi:role="line"
           id="tspan4210">Fahrzeugsteuerungs-</tspan><tspan
           x="0 14.56 29.120001 46.816002 54.487999 69.047997 86.744003"
           y="35"
           sodipodi:role="line"
           id="tspan4212">schicht</tspan></text>
</g></g></svg>