<?xml version="1.0" encoding="UTF-8" standalone="no"?>
<!-- Created with Inkscape (http://www.inkscape.org/) -->

<svg
   xmlns:osb="http://www.openswatchbook.org/uri/2009/osb"
   xmlns:dc="http://purl.org/dc/elements/1.1/"
   xmlns:cc="http://creativecommons.org/ns#"
   xmlns:rdf="http://www.w3.org/1999/02/22-rdf-syntax-ns#"
   xmlns:svg="http://www.w3.org/2000/svg"
   xmlns="http://www.w3.org/2000/svg"
   xmlns:sodipodi="http://sodipodi.sourceforge.net/DTD/sodipodi-0.dtd"
   xmlns:inkscape="http://www.inkscape.org/namespaces/inkscape"
   id="svg2"
   version="1.1"
   inkscape:version="0.91 r13725"
   xml:space="preserve"
   width="1017.3154"
   height="572.19989"
   viewBox="0 0 1017.3154 572.19989"
   sodipodi:docname="Routenbeispiel1.svg"><metadata
     id="metadata8"><rdf:RDF><cc:Work
         rdf:about=""><dc:format>image/svg+xml</dc:format><dc:type
           rdf:resource="http://purl.org/dc/dcmitype/StillImage" /><dc:title /></cc:Work></rdf:RDF></metadata><defs
     id="defs6"><linearGradient
       inkscape:collect="always"
       id="linearGradient5792"
       osb:paint="gradient"><stop
         style="stop-color:#000000;stop-opacity:1;"
         offset="0"
         id="stop5794" /><stop
         style="stop-color:#000000;stop-opacity:0;"
         offset="1"
         id="stop5796" /></linearGradient></defs><sodipodi:namedview
     pagecolor="#ffffff"
     bordercolor="#666666"
     borderopacity="1"
     objecttolerance="10"
     gridtolerance="10"
     guidetolerance="10"
     inkscape:pageopacity="0"
     inkscape:pageshadow="2"
     inkscape:window-width="1920"
     inkscape:window-height="1018"
     id="namedview4"
     showgrid="false"
     inkscape:zoom="1.4145072"
     inkscape:cx="543.30892"
     inkscape:cy="301.01504"
     inkscape:window-x="-8"
     inkscape:window-y="-8"
     inkscape:window-maximized="1"
     inkscape:current-layer="g12"
     inkscape:object-paths="true" /><g
     id="g10"
     inkscape:groupmode="layer"
     inkscape:label="SchemaStreckePDF"
     transform="matrix(1.25,0,0,-1.25,0,572.1999)"><g
       id="g12"><rect
         style="opacity:0.478;fill:#db0303;fill-opacity:1;stroke:none;stroke-width:4;stroke-miterlimit:4;stroke-dasharray:none;stroke-dashoffset:0;stroke-opacity:1"
         id="rect5812"
         width="57.059929"
         height="36.061375"
         x="645.87866"
         y="-411.59854"
         transform="scale(1,-1)" /><g
         id="g4238"
         transform="matrix(0.67073904,0,0,0.67073904,4.7993328,89.134928)"><g
           transform="matrix(1,0,0,-1,0,457.75992)"
           id="g14"><path
             inkscape:connector-curvature="0"
             id="path16"
             style="fill:none;stroke:#000000;stroke-width:3.20000005;stroke-linecap:butt;stroke-linejoin:miter;stroke-miterlimit:4;stroke-dasharray:none;stroke-opacity:1"
             d="m 17.379,17.984 771.605,-1.214 0.61,405.566 -771,0 -1.215,-404.352 z" /></g><g
           transform="matrix(1,0,0,-1,0,457.75992)"
           id="g18"><path
             inkscape:connector-curvature="0"
             id="path20"
             style="fill:none;stroke:#000000;stroke-width:3.20000005;stroke-linecap:butt;stroke-linejoin:miter;stroke-miterlimit:4;stroke-dasharray:none;stroke-opacity:1"
             d="m 146.281,17.379 0,293.074 642.703,-0.605" /></g><g
           transform="matrix(1,0,0,-1,0,457.75992)"
           id="g22"><path
             inkscape:connector-curvature="0"
             id="path24"
             style="fill:none;stroke:#000000;stroke-width:3.20000005;stroke-linecap:butt;stroke-linejoin:miter;stroke-miterlimit:4;stroke-dasharray:none;stroke-opacity:1"
             d="m 146.281,162.699 642.703,1.215" /></g><g
           transform="matrix(1,0,0,-1,0,457.75992)"
           id="g26"><path
             inkscape:connector-curvature="0"
             id="path28"
             style="fill:none;stroke:#000000;stroke-width:3.20000005;stroke-linecap:butt;stroke-linejoin:miter;stroke-miterlimit:4;stroke-dasharray:none;stroke-opacity:1"
             d="m 306.805,17.379 0,291.859" /></g><g
           transform="matrix(1,0,0,-1,0,457.75992)"
           id="g30"><path
             inkscape:connector-curvature="0"
             id="path32"
             style="fill:none;stroke:#000000;stroke-width:3.20000005;stroke-linecap:butt;stroke-linejoin:miter;stroke-miterlimit:4;stroke-dasharray:none;stroke-opacity:1"
             d="m 467.938,17.984 0.609,291.254" /></g><g
           transform="matrix(1,0,0,-1,0,457.75992)"
           id="g34"><path
             inkscape:connector-curvature="0"
             id="path36"
             style="fill:none;stroke:#000000;stroke-width:3.20000005;stroke-linecap:butt;stroke-linejoin:miter;stroke-miterlimit:4;stroke-dasharray:none;stroke-opacity:1"
             d="m 629.07,16.77 0,293.078" /></g><g
           transform="matrix(1,0,0,-1,0,457.75992)"
           id="g38"><path
             inkscape:connector-curvature="0"
             id="path40"
             style="fill:#ffffff;fill-opacity:1;fill-rule:nonzero;stroke:#000000;stroke-width:1.91999996;stroke-linecap:round;stroke-linejoin:round;stroke-miterlimit:4;stroke-dasharray:none;stroke-opacity:1"
             d="m 35.012,17.68 c 0,9.238 -7.625,16.722 -17.028,16.722 -9.402,0 -17.023,-7.484 -17.023,-16.722 0,-9.235 7.621,-16.719 17.023,-16.719 9.403,0 17.028,7.484 17.028,16.719 z" /></g><g
           transform="matrix(1,0,0,-1,0,457.75992)"
           id="g42"><path
             inkscape:connector-curvature="0"
             id="path44"
             style="fill:#ffffff;fill-opacity:1;fill-rule:nonzero;stroke:#db0303;stroke-width:4.77085693;stroke-linecap:round;stroke-linejoin:round;stroke-miterlimit:4;stroke-dasharray:none;stroke-opacity:1"
             d="m 95.816,17.984 c 0,9.235 -7.625,16.723 -17.027,16.723 -9.402,0 -17.023,-7.488 -17.023,-16.723 0,-9.234 7.621,-16.718 17.023,-16.718 9.402,0 17.027,7.484 17.027,16.718 z" /></g><g
           transform="matrix(1,0,0,-1,0,457.75992)"
           id="g46"><path
             inkscape:connector-curvature="0"
             id="path48"
             style="fill:#ffffff;fill-opacity:1;fill-rule:nonzero;stroke:#000000;stroke-width:1.91999996;stroke-linecap:round;stroke-linejoin:round;stroke-miterlimit:4;stroke-dasharray:none;stroke-opacity:1"
             d="m 163.309,163.613 c 0,9.235 -7.625,16.719 -17.028,16.719 -9.402,0 -17.023,-7.484 -17.023,-16.719 0,-9.234 7.621,-16.722 17.023,-16.722 9.403,0 17.028,7.488 17.028,16.722 z" /></g><g
           transform="matrix(1,0,0,-1,0,457.75992)"
           id="g50"><path
             inkscape:connector-curvature="0"
             id="path52"
             style="fill:#ffffff;fill-opacity:1;fill-rule:nonzero;stroke:#000000;stroke-width:1.91999996;stroke-linecap:round;stroke-linejoin:round;stroke-miterlimit:4;stroke-dasharray:none;stroke-opacity:1"
             d="m 645.793,163.613 c 0,9.235 -7.625,16.719 -17.027,16.719 -9.403,0 -17.024,-7.484 -17.024,-16.719 0,-9.234 7.621,-16.722 17.024,-16.722 9.402,0 17.027,7.488 17.027,16.722 z" /></g><g
           transform="matrix(1,0,0,-1,0,457.75992)"
           id="g54"><path
             inkscape:connector-curvature="0"
             id="path56"
             style="fill:#ffffff;fill-opacity:1;fill-rule:nonzero;stroke:#000000;stroke-width:1.91999996;stroke-linecap:round;stroke-linejoin:round;stroke-miterlimit:4;stroke-dasharray:none;stroke-opacity:1"
             d="m 324.137,163.613 c 0,9.235 -7.625,16.719 -17.028,16.719 -9.402,0 -17.023,-7.484 -17.023,-16.719 0,-9.234 7.621,-16.722 17.023,-16.722 9.403,0 17.028,7.488 17.028,16.722 z" /></g><g
           transform="matrix(1,0,0,-1,0,457.75992)"
           id="g58"><path
             inkscape:connector-curvature="0"
             id="path60"
             style="fill:#ffffff;fill-opacity:1;fill-rule:nonzero;stroke:#000000;stroke-width:1.91999996;stroke-linecap:round;stroke-linejoin:round;stroke-miterlimit:4;stroke-dasharray:none;stroke-opacity:1"
             d="m 484.965,163.613 c 0,9.235 -7.625,16.719 -17.027,16.719 -9.403,0 -17.024,-7.484 -17.024,-16.719 0,-9.234 7.621,-16.722 17.024,-16.722 9.402,0 17.027,7.488 17.027,16.722 z" /></g><g
           transform="matrix(1,0,0,-1,0,457.75992)"
           id="g62"><path
             inkscape:connector-curvature="0"
             id="path64"
             style="fill:#ffffff;fill-opacity:1;fill-rule:nonzero;stroke:#000000;stroke-width:1.91999996;stroke-linecap:round;stroke-linejoin:round;stroke-miterlimit:4;stroke-dasharray:none;stroke-opacity:1"
             d="m 163.309,18.594 c 0,9.234 -7.625,16.722 -17.028,16.722 -9.402,0 -17.023,-7.488 -17.023,-16.722 0,-9.235 7.621,-16.723 17.023,-16.723 9.403,0 17.028,7.488 17.028,16.723 z" /></g><g
           transform="matrix(1,0,0,-1,0,457.75992)"
           id="g66"><path
             inkscape:connector-curvature="0"
             id="path68"
             style="fill:#ffffff;fill-opacity:1;fill-rule:nonzero;stroke:#000000;stroke-width:1.91999996;stroke-linecap:round;stroke-linejoin:round;stroke-miterlimit:4;stroke-dasharray:none;stroke-opacity:1"
             d="m 243.723,18.594 c 0,9.234 -7.625,16.722 -17.028,16.722 -9.402,0 -17.023,-7.488 -17.023,-16.722 0,-9.235 7.621,-16.723 17.023,-16.723 9.403,0 17.028,7.488 17.028,16.723 z" /></g><g
           transform="matrix(1,0,0,-1,0,457.75992)"
           id="g70"><path
             inkscape:connector-curvature="0"
             id="path72"
             style="fill:#ffffff;fill-opacity:1;fill-rule:nonzero;stroke:#000000;stroke-width:1.91999996;stroke-linecap:round;stroke-linejoin:round;stroke-miterlimit:4;stroke-dasharray:none;stroke-opacity:1"
             d="m 404.551,18.594 c 0,9.234 -7.625,16.722 -17.028,16.722 -9.402,0 -17.023,-7.488 -17.023,-16.722 0,-9.235 7.621,-16.723 17.023,-16.723 9.403,0 17.028,7.488 17.028,16.723 z" /></g><g
           transform="matrix(1,0,0,-1,0,457.75992)"
           id="g74"><path
             inkscape:connector-curvature="0"
             id="path76"
             style="fill:#ffffff;fill-opacity:1;fill-rule:nonzero;stroke:#000000;stroke-width:1.91999996;stroke-linecap:round;stroke-linejoin:round;stroke-miterlimit:4;stroke-dasharray:none;stroke-opacity:1"
             d="m 565.379,18.594 c 0,9.234 -7.625,16.722 -17.027,16.722 -9.403,0 -17.024,-7.488 -17.024,-16.722 0,-9.235 7.621,-16.723 17.024,-16.723 9.402,0 17.027,7.488 17.027,16.723 z" /></g><g
           transform="matrix(1,0,0,-1,0,457.75992)"
           id="g78"><path
             inkscape:connector-curvature="0"
             id="path80"
             style="fill:#ffffff;fill-opacity:1;fill-rule:nonzero;stroke:#000000;stroke-width:1.91999996;stroke-linecap:round;stroke-linejoin:round;stroke-miterlimit:4;stroke-dasharray:none;stroke-opacity:1"
             d="m 324.137,18.594 c 0,9.234 -7.625,16.722 -17.028,16.722 -9.402,0 -17.023,-7.488 -17.023,-16.722 0,-9.235 7.621,-16.723 17.023,-16.723 9.403,0 17.028,7.488 17.028,16.723 z" /></g><g
           transform="matrix(1,0,0,-1,0,457.75992)"
           id="g82"><path
             inkscape:connector-curvature="0"
             id="path84"
             style="fill:#ffffff;fill-opacity:1;fill-rule:nonzero;stroke:#000000;stroke-width:1.91999996;stroke-linecap:round;stroke-linejoin:round;stroke-miterlimit:4;stroke-dasharray:none;stroke-opacity:1"
             d="m 484.965,18.594 c 0,9.234 -7.625,16.722 -17.027,16.722 -9.403,0 -17.024,-7.488 -17.024,-16.722 0,-9.235 7.621,-16.723 17.024,-16.723 9.402,0 17.027,7.488 17.027,16.723 z" /></g><g
           transform="matrix(1,0,0,-1,0,457.75992)"
           id="g86"><path
             inkscape:connector-curvature="0"
             id="path88"
             style="fill:#ffffff;fill-opacity:1;fill-rule:nonzero;stroke:#000000;stroke-width:1.91999996;stroke-linecap:round;stroke-linejoin:round;stroke-miterlimit:4;stroke-dasharray:none;stroke-opacity:1"
             d="m 645.793,18.594 c 0,9.234 -7.625,16.722 -17.027,16.722 -9.403,0 -17.024,-7.488 -17.024,-16.722 0,-9.235 7.621,-16.723 17.024,-16.723 9.402,0 17.027,7.488 17.027,16.723 z" /></g><g
           transform="matrix(1,0,0,-1,0,457.75992)"
           id="g90"><path
             inkscape:connector-curvature="0"
             id="path92"
             style="fill:#ffffff;fill-opacity:1;fill-rule:nonzero;stroke:#000000;stroke-width:1.91999996;stroke-linecap:round;stroke-linejoin:round;stroke-miterlimit:4;stroke-dasharray:none;stroke-opacity:1"
             d="m 726.207,18.594 c 0,9.234 -7.625,16.722 -17.027,16.722 -9.403,0 -17.024,-7.488 -17.024,-16.722 0,-9.235 7.621,-16.723 17.024,-16.723 9.402,0 17.027,7.488 17.027,16.723 z" /></g><g
           transform="matrix(1,0,0,-1,0,457.75992)"
           id="g94"><path
             inkscape:connector-curvature="0"
             id="path96"
             style="fill:#ffffff;fill-opacity:1;fill-rule:nonzero;stroke:#000000;stroke-width:1.91999996;stroke-linecap:round;stroke-linejoin:round;stroke-miterlimit:4;stroke-dasharray:none;stroke-opacity:1"
             d="m 806.617,18.594 c 0,9.234 -7.621,16.722 -17.023,16.722 -9.403,0 -17.024,-7.488 -17.024,-16.722 0,-9.235 7.621,-16.723 17.024,-16.723 9.402,0 17.023,7.488 17.023,16.723 z" /></g><g
           transform="matrix(1,0,0,-1,0,457.75992)"
           id="g98"><path
             inkscape:connector-curvature="0"
             id="path100"
             style="fill:#ffffff;fill-opacity:1;fill-rule:nonzero;stroke:#000000;stroke-width:1.91999996;stroke-linecap:round;stroke-linejoin:round;stroke-miterlimit:4;stroke-dasharray:none;stroke-opacity:1"
             d="m 163.309,308.629 c 0,9.238 -7.625,16.723 -17.028,16.723 -9.402,0 -17.023,-7.485 -17.023,-16.723 0,-9.234 7.621,-16.719 17.023,-16.719 9.403,0 17.028,7.485 17.028,16.719 z" /></g><g
           transform="matrix(1,0,0,-1,0,457.75992)"
           id="g102"><path
             inkscape:connector-curvature="0"
             id="path104"
             style="fill:#ffffff;fill-opacity:1;fill-rule:nonzero;stroke:#db0303;stroke-width:4.77085693;stroke-linecap:round;stroke-linejoin:round;stroke-miterlimit:4;stroke-dasharray:none;stroke-opacity:1"
             d="m 243.723,308.629 c 0,9.238 -7.625,16.723 -17.028,16.723 -9.402,0 -17.023,-7.485 -17.023,-16.723 0,-9.234 7.621,-16.719 17.023,-16.719 9.403,0 17.028,7.485 17.028,16.719 z" /></g><g
           transform="matrix(1,0,0,-1,0,457.75992)"
           id="g106"><path
             inkscape:connector-curvature="0"
             id="path108"
             style="fill:#ffffff;fill-opacity:1;fill-rule:nonzero;stroke:#000000;stroke-width:1.91999996;stroke-linecap:round;stroke-linejoin:round;stroke-miterlimit:4;stroke-dasharray:none;stroke-opacity:1"
             d="m 404.551,308.629 c 0,9.238 -7.625,16.723 -17.028,16.723 -9.402,0 -17.023,-7.485 -17.023,-16.723 0,-9.234 7.621,-16.719 17.023,-16.719 9.403,0 17.028,7.485 17.028,16.719 z" /></g><g
           transform="matrix(1,0,0,-1,0,457.75992)"
           id="g110"><path
             inkscape:connector-curvature="0"
             id="path112"
             style="fill:#ffffff;fill-opacity:1;fill-rule:nonzero;stroke:#000000;stroke-width:1.91999996;stroke-linecap:round;stroke-linejoin:round;stroke-miterlimit:4;stroke-dasharray:none;stroke-opacity:1"
             d="m 565.379,308.629 c 0,9.238 -7.625,16.723 -17.027,16.723 -9.403,0 -17.024,-7.485 -17.024,-16.723 0,-9.234 7.621,-16.719 17.024,-16.719 9.402,0 17.027,7.485 17.027,16.719 z" /></g><g
           transform="matrix(1,0,0,-1,0,457.75992)"
           id="g114"><path
             inkscape:connector-curvature="0"
             id="path116"
             style="fill:#ffffff;fill-opacity:1;fill-rule:nonzero;stroke:#000000;stroke-width:1.91999996;stroke-linecap:round;stroke-linejoin:round;stroke-miterlimit:4;stroke-dasharray:none;stroke-opacity:1"
             d="m 324.137,308.629 c 0,9.238 -7.625,16.723 -17.028,16.723 -9.402,0 -17.023,-7.485 -17.023,-16.723 0,-9.234 7.621,-16.719 17.023,-16.719 9.403,0 17.028,7.485 17.028,16.719 z" /></g><g
           transform="matrix(1,0,0,-1,0,457.75992)"
           id="g118"><path
             inkscape:connector-curvature="0"
             id="path120"
             style="fill:#ffffff;fill-opacity:1;fill-rule:nonzero;stroke:#000000;stroke-width:1.91999996;stroke-linecap:round;stroke-linejoin:round;stroke-miterlimit:4;stroke-dasharray:none;stroke-opacity:1"
             d="m 484.965,308.629 c 0,9.238 -7.625,16.723 -17.027,16.723 -9.403,0 -17.024,-7.485 -17.024,-16.723 0,-9.234 7.621,-16.719 17.024,-16.719 9.402,0 17.027,7.485 17.027,16.719 z" /></g><g
           transform="matrix(1,0,0,-1,0,457.75992)"
           id="g122"><path
             inkscape:connector-curvature="0"
             id="path124"
             style="fill:#ffffff;fill-opacity:1;fill-rule:nonzero;stroke:#000000;stroke-width:1.91999996;stroke-linecap:round;stroke-linejoin:round;stroke-miterlimit:4;stroke-dasharray:none;stroke-opacity:1"
             d="m 645.793,308.629 c 0,9.238 -7.625,16.723 -17.027,16.723 -9.403,0 -17.024,-7.485 -17.024,-16.723 0,-9.234 7.621,-16.719 17.024,-16.719 9.402,0 17.027,7.485 17.027,16.719 z" /></g><g
           transform="matrix(1,0,0,-1,0,457.75992)"
           id="g126"><path
             inkscape:connector-curvature="0"
             id="path128"
             style="fill:#ffffff;fill-opacity:1;fill-rule:nonzero;stroke:#000000;stroke-width:1.91999996;stroke-linecap:round;stroke-linejoin:round;stroke-miterlimit:4;stroke-dasharray:none;stroke-opacity:1"
             d="m 726.207,308.629 c 0,9.238 -7.625,16.723 -17.027,16.723 -9.403,0 -17.024,-7.485 -17.024,-16.723 0,-9.234 7.621,-16.719 17.024,-16.719 9.402,0 17.027,7.485 17.027,16.719 z" /></g><g
           transform="matrix(1,0,0,-1,0,457.75992)"
           id="g130"><path
             inkscape:connector-curvature="0"
             id="path132"
             style="fill:#ffffff;fill-opacity:1;fill-rule:nonzero;stroke:#000000;stroke-width:1.91999996;stroke-linecap:round;stroke-linejoin:round;stroke-miterlimit:4;stroke-dasharray:none;stroke-opacity:1"
             d="m 806.617,308.629 c 0,9.238 -7.621,16.723 -17.023,16.723 -9.403,0 -17.024,-7.485 -17.024,-16.723 0,-9.234 7.621,-16.719 17.024,-16.719 9.402,0 17.023,7.485 17.023,16.719 z" /></g><g
           transform="matrix(1,0,0,-1,0,457.75992)"
           id="g134"><path
             inkscape:connector-curvature="0"
             id="path136"
             style="fill:#ffffff;fill-opacity:1;fill-rule:nonzero;stroke:#000000;stroke-width:1.91999996;stroke-linecap:round;stroke-linejoin:round;stroke-miterlimit:4;stroke-dasharray:none;stroke-opacity:1"
             d="m 806.617,163.613 c 0,9.235 -7.621,16.719 -17.023,16.719 -9.403,0 -17.024,-7.484 -17.024,-16.719 0,-9.234 7.621,-16.722 17.024,-16.722 9.402,0 17.023,7.488 17.023,16.722 z" /></g><g
           transform="matrix(1,0,0,-1,0,457.75992)"
           id="g138"><path
             inkscape:connector-curvature="0"
             id="path140"
             style="fill:#ffffff;fill-opacity:1;fill-rule:nonzero;stroke:#000000;stroke-width:1.91999996;stroke-linecap:round;stroke-linejoin:round;stroke-miterlimit:4;stroke-dasharray:none;stroke-opacity:1"
             d="m 806.617,421.117 c 0,9.238 -7.621,16.723 -17.023,16.723 -9.403,0 -17.024,-7.485 -17.024,-16.723 0,-9.234 7.621,-16.719 17.024,-16.719 9.402,0 17.023,7.485 17.023,16.719 z" /></g><g
           transform="matrix(1,0,0,-1,0,457.75992)"
           id="g142"><path
             inkscape:connector-curvature="0"
             id="path144"
             style="fill:#ffffff;fill-opacity:1;fill-rule:nonzero;stroke:#000000;stroke-width:1.91999996;stroke-linecap:round;stroke-linejoin:round;stroke-miterlimit:4;stroke-dasharray:none;stroke-opacity:1"
             d="m 35.012,421.117 c 0,9.238 -7.625,16.723 -17.028,16.723 -9.402,0 -17.023,-7.485 -17.023,-16.723 0,-9.234 7.621,-16.719 17.023,-16.719 9.403,0 17.028,7.485 17.028,16.719 z" /></g><text
           id="text146"
           style="font-variant:normal;font-weight:normal;font-size:16px;font-family:Verdana;-inkscape-font-specification:Verdana;writing-mode:lr-tb;fill:#000000;fill-opacity:1;fill-rule:nonzero;stroke:none"
           transform="matrix(1,0,0,-1,7.648468,433.9778)"><tspan
             id="tspan148"
             sodipodi:role="line"
             y="0"
             x="0 10.16">26</tspan><tspan
             id="tspan150"
             y="-0.60804802"
             x="65.70768">0</tspan><tspan
             id="tspan152"
             sodipodi:role="line"
             y="0.242184"
             x="133.20409 213.81207">12</tspan><tspan
             id="tspan154"
             y="1.110223e-016"
             x="294.37149">3</tspan><tspan
             id="tspan156"
             y="0.242184"
             x="374.39209">4</tspan><tspan
             id="tspan158"
             y="1.110223e-016"
             x="455.242">5</tspan><tspan
             id="tspan160"
             y="0.60804802"
             x="535.18835">6</tspan><tspan
             id="tspan162"
             y="-0.36586401"
             x="616.29224">7</tspan><tspan
             id="tspan164"
             y="-0.02344"
             x="696.88177">8</tspan><tspan
             id="tspan166"
             y="0.015624"
             x="776.85156">9</tspan><tspan
             id="tspan168"
             sodipodi:role="line"
             y="144.73022"
             x="128.06804 138.22803">10</tspan><tspan
             id="tspan170"
             sodipodi:role="line"
             y="143.51414"
             x="287.98373 298.14374">11</tspan><tspan
             id="tspan172"
             sodipodi:role="line"
             y="144.12219"
             x="449.7236 459.88361 610.2196 620.37958">1213</tspan><tspan
             id="tspan174"
             sodipodi:role="line"
             y="144.73022"
             x="770.16309 780.32306">14</tspan><tspan
             id="tspan176"
             sodipodi:role="line"
             y="288.83679"
             x="128.06804 138.22803">15</tspan><tspan
             id="tspan178"
             sodipodi:role="line"
             y="289.44485"
             x="207.72188 217.88187">16</tspan><tspan
             id="tspan180"
             sodipodi:role="line"
             y="288.83679"
             x="288.5918 298.7518">17</tspan><tspan
             id="tspan182"
             sodipodi:role="line"
             y="289.44485"
             x="368.85367 379.01367">18</tspan><tspan
             id="tspan184"
             sodipodi:role="line"
             y="290.05289"
             x="448.50751 458.66751 530.57153 540.73151">1920</tspan><tspan
             id="tspan186"
             sodipodi:role="line"
             y="289.44485"
             x="612.07147 622.23145">21</tspan><tspan
             id="tspan188"
             sodipodi:role="line"
             y="290.05289"
             x="691.72534 701.88531 771.3573 781.51733">2223</tspan><tspan
             id="tspan190"
             sodipodi:role="line"
             y="401.93307"
             x="771.98718 782.14716 -0.229376 9.930624">2425</tspan></text>
</g><g
         id="g4569"
         transform="matrix(0,-0.35480803,-0.35480803,0,273.57142,572.95204)"><text
           xml:space="preserve"
           style="font-style:normal;font-weight:normal;font-size:17.5px;line-height:125%;font-family:sans-serif;letter-spacing:0px;word-spacing:0px;fill:#000000;fill-opacity:1;stroke:none;stroke-width:1px;stroke-linecap:butt;stroke-linejoin:miter;stroke-opacity:1"
           x="512.5329"
           y="813.42603"
           id="text4561"
           sodipodi:linespacing="125%"><tspan
             sodipodi:role="line"
             id="tspan4563"
             x="512.5329"
             y="813.42603" /></text>
<g
           id="g4371"
           transform="translate(0,-117.2465)"><g
             transform="matrix(0,-1,1,0,41.88982,1282.2922)"
             id="g4527"><rect
               ry="7.3008261"
               y="452.65134"
               x="426.22159"
               height="73.008263"
               width="99.082687"
               id="rect4264"
               style="opacity:1;fill:#445dd1;fill-opacity:1;stroke:#3664c3;stroke-width:2.5;stroke-linecap:round;stroke-linejoin:round;stroke-miterlimit:4;stroke-dasharray:none;stroke-dashoffset:0;stroke-opacity:1" /><rect
               ry="0"
               y="481.85464"
               x="517.3158"
               height="15.644631"
               width="27.117361"
               id="rect4266"
               style="opacity:1;fill:#445dd1;fill-opacity:1;stroke:#3664c3;stroke-width:2.5;stroke-linecap:round;stroke-linejoin:round;stroke-miterlimit:4;stroke-dasharray:none;stroke-dashoffset:0;stroke-opacity:1" /><rect
               y="440.13562"
               x="459.33893"
               height="12.515705"
               width="31.289263"
               id="rect4272"
               style="opacity:1;fill:#000000;fill-opacity:1;stroke:none;stroke-width:2.5;stroke-linecap:round;stroke-linejoin:round;stroke-miterlimit:4;stroke-dasharray:none;stroke-dashoffset:0;stroke-opacity:1" /><rect
               y="526.43317"
               x="459.33893"
               height="12.515705"
               width="31.289263"
               id="rect4272-6"
               style="opacity:1;fill:#000000;fill-opacity:1;stroke:none;stroke-width:2.5;stroke-linecap:round;stroke-linejoin:round;stroke-miterlimit:4;stroke-dasharray:none;stroke-dashoffset:0;stroke-opacity:1" /></g><text
             transform="matrix(0,-1,1,0,0,0)"
             sodipodi:linespacing="125%"
             id="text4565"
             y="545.89709"
             x="-829.14734"
             style="font-style:normal;font-weight:normal;font-size:40px;line-height:125%;font-family:sans-serif;letter-spacing:0px;word-spacing:0px;fill:#000000;fill-opacity:1;stroke:none;stroke-width:1px;stroke-linecap:butt;stroke-linejoin:miter;stroke-opacity:1"
             xml:space="preserve"><tspan
               y="545.89709"
               x="-829.14734"
               id="tspan4567"
               sodipodi:role="line">F1</tspan></text>
</g></g><path
         style="fill:none;fill-rule:evenodd;stroke:#db0303;stroke-width:3.2;stroke-linecap:butt;stroke-linejoin:miter;stroke-opacity:1;stroke-miterlimit:4;stroke-dasharray:none"
         d="m 69.848265,384.19381 21.660295,0"
         id="path4380"
         inkscape:connector-curvature="0" /><path
         style="fill:none;fill-rule:evenodd;stroke:#db0303;stroke-width:3.2;stroke-linecap:butt;stroke-linejoin:miter;stroke-opacity:1;stroke-miterlimit:4;stroke-dasharray:none"
         d="m 102.91571,372.42654 0,-74.77969"
         id="path4382"
         inkscape:connector-curvature="0" /><path
         style="fill:none;fill-rule:evenodd;stroke:#db0303;stroke-width:3.2;stroke-linecap:butt;stroke-linejoin:miter;stroke-opacity:1;stroke-miterlimit:4;stroke-dasharray:none"
         d="m 102.91571,275.71441 0,-75.33747"
         id="path4384"
         inkscape:connector-curvature="0" /><path
         style="fill:none;fill-rule:evenodd;stroke:#db0303;stroke-width:3.2;stroke-linecap:butt;stroke-linejoin:miter;stroke-opacity:1;stroke-miterlimit:4;stroke-dasharray:none"
         d="m 114.52762,187.95036 30.97281,0"
         id="path4386"
         inkscape:connector-curvature="0" /><text
         xml:space="preserve"
         style="font-style:normal;font-weight:normal;font-size:32px;line-height:125%;font-family:sans-serif;letter-spacing:0px;word-spacing:0px;fill:#000000;fill-opacity:1;stroke:none;stroke-width:1px;stroke-linecap:butt;stroke-linejoin:miter;stroke-opacity:1"
         x="167.96512"
         y="-431.91034"
         id="text4390"
         sodipodi:linespacing="125%"
         transform="scale(1,-1)"><tspan
           sodipodi:role="line"
           id="tspan4392"
           x="167.96512"
           y="-431.91034" /></text>
<text
         xml:space="preserve"
         style="font-style:italic;font-weight:normal;font-size:10px;line-height:125%;font-family:sans-serif;letter-spacing:0px;word-spacing:0px;fill:#000000;fill-opacity:1;stroke:none;stroke-width:1px;stroke-linecap:butt;stroke-linejoin:miter;stroke-opacity:1;-inkscape-font-specification:'sans-serif Italic';font-stretch:normal;font-variant:normal;"
         x="61.587212"
         y="-329.93149"
         id="text4398"
         sodipodi:linespacing="125%"
         transform="scale(1,-1)"><tspan
           sodipodi:role="line"
           id="tspan4400"
           x="61.587212"
           y="-329.93149" /></text>
<text
         xml:space="preserve"
         style="font-style:italic;font-variant:normal;font-weight:normal;font-stretch:normal;font-size:8px;line-height:125%;font-family:sans-serif;-inkscape-font-specification:'sans-serif Italic';letter-spacing:0px;word-spacing:0px;fill:#000000;fill-opacity:1;stroke:none;stroke-width:1px;stroke-linecap:butt;stroke-linejoin:miter;stroke-opacity:1"
         x="41.588387"
         y="-359.1312"
         id="text4402"
         sodipodi:linespacing="125%"
         transform="scale(1,-1)"><tspan
           sodipodi:role="line"
           id="tspan4404"
           x="41.588387"
           y="-359.1312">Eingang</tspan></text>
<text
         xml:space="preserve"
         style="font-style:normal;font-weight:normal;font-size:10px;line-height:125%;font-family:sans-serif;letter-spacing:0px;word-spacing:0px;fill:#000000;fill-opacity:1;stroke:none;stroke-width:1px;stroke-linecap:butt;stroke-linejoin:miter;stroke-opacity:1"
         x="153.1682"
         y="-359.52536"
         id="text4406"
         sodipodi:linespacing="125%"
         transform="scale(1,-1)"><tspan
           sodipodi:role="line"
           id="tspan4408"
           x="153.1682"
           y="-359.52536">X</tspan></text>
<text
         xml:space="preserve"
         style="font-style:normal;font-weight:normal;font-size:10px;line-height:125%;font-family:sans-serif;letter-spacing:0px;word-spacing:0px;fill:#000000;fill-opacity:1;stroke:none;stroke-width:1px;stroke-linecap:butt;stroke-linejoin:miter;stroke-opacity:1"
         x="155.16779"
         y="-163.96596"
         id="text4410"
         sodipodi:linespacing="125%"
         transform="scale(1,-1)"><tspan
           sodipodi:role="line"
           id="tspan4412"
           x="155.16779"
           y="-163.96596">Y</tspan></text>
<text
         xml:space="preserve"
         style="font-style:italic;font-variant:normal;font-weight:normal;font-stretch:normal;font-size:8px;line-height:125%;font-family:sans-serif;-inkscape-font-specification:'sans-serif Italic';letter-spacing:0px;word-spacing:0px;fill:#000000;fill-opacity:1;stroke:none;stroke-width:1px;stroke-linecap:butt;stroke-linejoin:miter;stroke-opacity:1"
         x="517.49042"
         y="-91.181404"
         id="text4414"
         sodipodi:linespacing="125%"
         transform="scale(1,-1)"><tspan
           sodipodi:role="line"
           id="tspan4416"
           x="517.49042"
           y="-91.181404">Ausgang</tspan></text>
<text
         xml:space="preserve"
         style="font-style:normal;font-weight:normal;font-size:10px;line-height:125%;font-family:sans-serif;letter-spacing:0px;word-spacing:0px;fill:#000000;fill-opacity:1;stroke:none;stroke-width:1px;stroke-linecap:butt;stroke-linejoin:miter;stroke-opacity:1"
         x="95.180237"
         y="-424.71179"
         id="text4418"
         sodipodi:linespacing="125%"
         transform="scale(1,-1)"><tspan
           sodipodi:role="line"
           id="tspan4420"
           x="95.180237"
           y="-424.71179">Alle Kanten haben im Beispiel die Gewichtung &quot;2&quot;.</tspan></text>
<g
         id="g4274"
         transform="translate(-34.39286,-44.790701)"><g
           transform="translate(36.792361,-16.796512)"
           id="g4436"><rect
             style="opacity:1;fill:none;fill-opacity:1;stroke:#000000;stroke-width:2.63214922;stroke-miterlimit:4;stroke-dasharray:none;stroke-dashoffset:0;stroke-opacity:1"
             id="rect4388"
             width="57.755981"
             height="228.12059"
             x="642.78314"
             y="-329.4068"
             transform="scale(1,-1)"
             ry="0" /><text
             xml:space="preserve"
             style="font-style:normal;font-weight:normal;font-size:32px;line-height:125%;font-family:sans-serif;letter-spacing:0px;word-spacing:0px;fill:#000000;fill-opacity:1;stroke:none;stroke-width:1px;stroke-linecap:butt;stroke-linejoin:miter;stroke-opacity:1"
             x="616.67194"
             y="-345.52829"
             id="text4394"
             sodipodi:linespacing="125%"
             transform="scale(1,-1)"><tspan
               sodipodi:role="line"
               id="tspan4396"
               x="616.67194"
               y="-345.52829">Route:</tspan></text>
<path
             style="fill:none;fill-rule:evenodd;stroke:#000000;stroke-width:0.6580373px;stroke-linecap:butt;stroke-linejoin:miter;stroke-opacity:1"
             d="m 642.78315,273.62644 57.75599,0"
             id="path4422"
             inkscape:connector-curvature="0" /><path
             style="fill:none;fill-rule:evenodd;stroke:#000000;stroke-width:0.6580373px;stroke-linecap:butt;stroke-linejoin:miter;stroke-opacity:1"
             d="m 642.78315,244.67165 57.75599,0"
             id="path4424"
             inkscape:connector-curvature="0" /><path
             style="fill:none;fill-rule:evenodd;stroke:#000000;stroke-width:0.6580373px;stroke-linecap:butt;stroke-linejoin:miter;stroke-opacity:1"
             d="m 642.78315,215.71687 57.75599,0"
             id="path4426"
             inkscape:connector-curvature="0" /><path
             style="fill:none;fill-rule:evenodd;stroke:#000000;stroke-width:0.6580373px;stroke-linecap:butt;stroke-linejoin:miter;stroke-opacity:1"
             d="m 642.78315,186.76208 57.75599,0"
             id="path4428"
             inkscape:connector-curvature="0" /><path
             style="fill:none;fill-rule:evenodd;stroke:#000000;stroke-width:0.6580373px;stroke-linecap:butt;stroke-linejoin:miter;stroke-opacity:1"
             d="m 642.78315,157.80729 57.75599,0"
             id="path4430"
             inkscape:connector-curvature="0" /><path
             style="fill:none;fill-rule:evenodd;stroke:#000000;stroke-width:0.6580373px;stroke-linecap:butt;stroke-linejoin:miter;stroke-opacity:1"
             d="m 642.78315,128.85249 57.75599,0"
             id="path4432"
             inkscape:connector-curvature="0" /><path
             style="fill:none;fill-rule:evenodd;stroke:#000000;stroke-width:0.6580373px;stroke-linecap:butt;stroke-linejoin:miter;stroke-opacity:1"
             d="m 643.18307,302.58122 57.75599,0"
             id="path4434"
             inkscape:connector-curvature="0" /></g><text
           transform="scale(1,-1)"
           sodipodi:linespacing="125%"
           id="text4448"
           y="-293.53769"
           x="702.2511"
           style="font-style:normal;font-weight:normal;font-size:16px;line-height:125%;font-family:sans-serif;letter-spacing:0px;word-spacing:0px;fill:#000000;fill-opacity:1;stroke:none;stroke-width:1px;stroke-linecap:butt;stroke-linejoin:miter;stroke-opacity:1"
           xml:space="preserve"><tspan
             y="-293.53769"
             x="702.2511"
             id="tspan4450"
             sodipodi:role="line">0</tspan></text>
<text
           transform="scale(1,-1)"
           sodipodi:linespacing="125%"
           id="text4452"
           y="-264.53589"
           x="702.10657"
           style="font-style:normal;font-weight:normal;font-size:16px;line-height:125%;font-family:sans-serif;letter-spacing:0px;word-spacing:0px;fill:#000000;fill-opacity:1;stroke:none;stroke-width:1px;stroke-linecap:butt;stroke-linejoin:miter;stroke-opacity:1"
           xml:space="preserve"><tspan
             y="-264.53589"
             x="702.10657"
             id="tspan4454"
             sodipodi:role="line">1</tspan></text>
<text
           transform="scale(1,-1)"
           sodipodi:linespacing="125%"
           id="text4456"
           y="-235.54974"
           x="696.80579"
           style="font-style:normal;font-weight:normal;font-size:16px;line-height:125%;font-family:sans-serif;letter-spacing:0px;word-spacing:0px;fill:#000000;fill-opacity:1;stroke:none;stroke-width:1px;stroke-linecap:butt;stroke-linejoin:miter;stroke-opacity:1"
           xml:space="preserve"><tspan
             y="-235.54974"
             x="696.80579"
             id="tspan4458"
             sodipodi:role="line">10</tspan></text>
<text
           transform="scale(1,-1)"
           sodipodi:linespacing="125%"
           id="text4460"
           y="-206.66124"
           x="696.97375"
           style="font-style:normal;font-weight:normal;font-size:16px;line-height:125%;font-family:sans-serif;letter-spacing:0px;word-spacing:0px;fill:#000000;fill-opacity:1;stroke:none;stroke-width:1px;stroke-linecap:butt;stroke-linejoin:miter;stroke-opacity:1"
           xml:space="preserve"><tspan
             y="-206.66124"
             x="696.97375"
             id="tspan4462"
             sodipodi:role="line">15</tspan></text>
<text
           transform="scale(1,-1)"
           sodipodi:linespacing="125%"
           id="text4464"
           y="-177.56178"
           x="696.77844"
           style="font-style:normal;font-weight:normal;font-size:16px;line-height:125%;font-family:sans-serif;letter-spacing:0px;word-spacing:0px;fill:#000000;fill-opacity:1;stroke:none;stroke-width:1px;stroke-linecap:butt;stroke-linejoin:miter;stroke-opacity:1"
           xml:space="preserve"><tspan
             y="-177.56178"
             x="696.77844"
             id="tspan4466"
             sodipodi:role="line">16</tspan></text>
</g><text
         xml:space="preserve"
         style="font-style:normal;font-weight:normal;font-size:32px;line-height:125%;font-family:sans-serif;letter-spacing:0px;word-spacing:0px;fill:#000000;fill-opacity:1;stroke:none;stroke-width:1px;stroke-linecap:butt;stroke-linejoin:miter;stroke-opacity:1"
         x="619.07141"
         y="-426.31152"
         id="text4297"
         sodipodi:linespacing="125%"
         transform="scale(1,-1)"><tspan
           sodipodi:role="line"
           id="tspan4299"
           x="619.07141"
           y="-426.31152">Rezept:</tspan><tspan
           sodipodi:role="line"
           x="619.07141"
           y="-386.31152"
           id="tspan4301" /></text>
<rect
         style="opacity:1;fill:none;fill-opacity:1;stroke:#000000;stroke-width:2.63214922;stroke-miterlimit:4;stroke-dasharray:none;stroke-dashoffset:0;stroke-opacity:1"
         id="rect4388-4"
         width="57.755981"
         height="69.753448"
         x="645.18262"
         y="-411.59854"
         ry="0"
         transform="scale(1,-1)" /><path
         style="fill:none;fill-rule:evenodd;stroke:#000000;stroke-width:0.6580373px;stroke-linecap:butt;stroke-linejoin:miter;stroke-opacity:1"
         d="m 644.58253,375.9213 57.75599,0"
         id="path4434-2"
         inkscape:connector-curvature="0" /><text
         xml:space="preserve"
         style="font-style:normal;font-weight:normal;font-size:16px;line-height:125%;font-family:sans-serif;letter-spacing:0px;word-spacing:0px;fill:#000000;fill-opacity:1;stroke:none;stroke-width:1px;stroke-linecap:butt;stroke-linejoin:miter;stroke-opacity:1"
         x="668.32275"
         y="-387.04193"
         id="text4333"
         sodipodi:linespacing="125%"
         transform="scale(1,-1)"><tspan
           sodipodi:role="line"
           id="tspan4335"
           x="668.32275"
           y="-387.04193">2</tspan></text>
<text
         xml:space="preserve"
         style="font-style:normal;font-weight:normal;font-size:16px;line-height:125%;font-family:sans-serif;letter-spacing:0px;word-spacing:0px;fill:#000000;fill-opacity:1;stroke:none;stroke-width:1px;stroke-linecap:butt;stroke-linejoin:miter;stroke-opacity:1"
         x="669.56726"
         y="-353.10785"
         id="text4337"
         sodipodi:linespacing="125%"
         transform="scale(1,-1)"><tspan
           sodipodi:role="line"
           id="tspan4339"
           x="669.56726"
           y="-353.10785">1</tspan></text>
<text
         xml:space="preserve"
         style="font-style:normal;font-weight:normal;font-size:16px;line-height:125%;font-family:sans-serif;letter-spacing:0px;word-spacing:0px;fill:#db0202;fill-opacity:0.47843137;stroke:none;stroke-width:1px;stroke-linecap:butt;stroke-linejoin:miter;stroke-opacity:1"
         x="710.93378"
         y="-398.43536"
         id="text5814"
         sodipodi:linespacing="125%"
         transform="scale(1,-1)"><tspan
           sodipodi:role="line"
           x="710.93378"
           y="-398.43536"
           id="tspan5818">Aktuelles</tspan><tspan
           sodipodi:role="line"
           x="710.93378"
           y="-378.43536"
           id="tspan5822">Ziel</tspan></text>
</g></g></svg>