<?xml version="1.0" encoding="UTF-8" standalone="no"?>
<!-- Created with Inkscape (http://www.inkscape.org/) -->

<svg
   xmlns:dc="http://purl.org/dc/elements/1.1/"
   xmlns:cc="http://creativecommons.org/ns#"
   xmlns:rdf="http://www.w3.org/1999/02/22-rdf-syntax-ns#"
   xmlns:svg="http://www.w3.org/2000/svg"
   xmlns="http://www.w3.org/2000/svg"
   xmlns:sodipodi="http://sodipodi.sourceforge.net/DTD/sodipodi-0.dtd"
   xmlns:inkscape="http://www.inkscape.org/namespaces/inkscape"
   id="svg2"
   version="1.1"
   inkscape:version="0.91 r13725"
   xml:space="preserve"
   width="1017.3154"
   height="572.19989"
   viewBox="0 0 1017.3154 572.19989"
   sodipodi:docname="SchemaStrecke.svg"><metadata
     id="metadata8"><rdf:RDF><cc:Work
         rdf:about=""><dc:format>image/svg+xml</dc:format><dc:type
           rdf:resource="http://purl.org/dc/dcmitype/StillImage" /><dc:title></dc:title></cc:Work></rdf:RDF></metadata><defs
     id="defs6" /><sodipodi:namedview
     pagecolor="#ffffff"
     bordercolor="#666666"
     borderopacity="1"
     objecttolerance="10"
     gridtolerance="10"
     guidetolerance="10"
     inkscape:pageopacity="0"
     inkscape:pageshadow="2"
     inkscape:window-width="1920"
     inkscape:window-height="1148"
     id="namedview4"
     showgrid="false"
     inkscape:zoom="1.4449796"
     inkscape:cx="508.65771"
     inkscape:cy="286.09995"
     inkscape:window-x="1358"
     inkscape:window-y="-8"
     inkscape:window-maximized="1"
     inkscape:current-layer="g12" /><g
     id="g10"
     inkscape:groupmode="layer"
     inkscape:label="SchemaStreckePDF"
     transform="matrix(1.25,0,0,-1.25,0,572.1999)"><g
       id="g12"><g
         id="g14"
         transform="matrix(1,0,0,-1,0,457.75992)"><path
           d="m 17.379,17.984 771.605,-1.214 0.61,405.566 -771,0 -1.215,-404.352 z"
           style="fill:none;stroke:#000000;stroke-width:3.20000005;stroke-linecap:butt;stroke-linejoin:miter;stroke-miterlimit:4;stroke-dasharray:none;stroke-opacity:1"
           id="path16"
           inkscape:connector-curvature="0" /></g><g
         id="g18"
         transform="matrix(1,0,0,-1,0,457.75992)"><path
           d="m 146.281,17.379 0,293.074 642.703,-0.605"
           style="fill:none;stroke:#000000;stroke-width:3.20000005;stroke-linecap:butt;stroke-linejoin:miter;stroke-miterlimit:4;stroke-dasharray:none;stroke-opacity:1"
           id="path20"
           inkscape:connector-curvature="0" /></g><g
         id="g22"
         transform="matrix(1,0,0,-1,0,457.75992)"><path
           d="m 146.281,162.699 642.703,1.215"
           style="fill:none;stroke:#000000;stroke-width:3.20000005;stroke-linecap:butt;stroke-linejoin:miter;stroke-miterlimit:4;stroke-dasharray:none;stroke-opacity:1"
           id="path24"
           inkscape:connector-curvature="0" /></g><g
         id="g26"
         transform="matrix(1,0,0,-1,0,457.75992)"><path
           d="m 306.805,17.379 0,291.859"
           style="fill:none;stroke:#000000;stroke-width:3.20000005;stroke-linecap:butt;stroke-linejoin:miter;stroke-miterlimit:4;stroke-dasharray:none;stroke-opacity:1"
           id="path28"
           inkscape:connector-curvature="0" /></g><g
         id="g30"
         transform="matrix(1,0,0,-1,0,457.75992)"><path
           d="m 467.938,17.984 0.609,291.254"
           style="fill:none;stroke:#000000;stroke-width:3.20000005;stroke-linecap:butt;stroke-linejoin:miter;stroke-miterlimit:4;stroke-dasharray:none;stroke-opacity:1"
           id="path32"
           inkscape:connector-curvature="0" /></g><g
         id="g34"
         transform="matrix(1,0,0,-1,0,457.75992)"><path
           d="m 629.07,16.77 0,293.078"
           style="fill:none;stroke:#000000;stroke-width:3.20000005;stroke-linecap:butt;stroke-linejoin:miter;stroke-miterlimit:4;stroke-dasharray:none;stroke-opacity:1"
           id="path36"
           inkscape:connector-curvature="0" /></g><g
         id="g38"
         transform="matrix(1,0,0,-1,0,457.75992)"><path
           d="m 35.012,17.68 c 0,9.238 -7.625,16.722 -17.028,16.722 -9.402,0 -17.023,-7.484 -17.023,-16.722 0,-9.235 7.621,-16.719 17.023,-16.719 9.403,0 17.028,7.484 17.028,16.719 z"
           style="fill:#ffffff;fill-opacity:1;fill-rule:nonzero;stroke:#000000;stroke-width:1.91999996;stroke-linecap:round;stroke-linejoin:round;stroke-miterlimit:4;stroke-dasharray:none;stroke-opacity:1"
           id="path40"
           inkscape:connector-curvature="0" /></g><g
         id="g42"
         transform="matrix(1,0,0,-1,0,457.75992)"><path
           d="m 95.816,17.984 c 0,9.235 -7.625,16.723 -17.027,16.723 -9.402,0 -17.023,-7.488 -17.023,-16.723 0,-9.234 7.621,-16.718 17.023,-16.718 9.402,0 17.027,7.484 17.027,16.718 z"
           style="fill:#ffffff;fill-opacity:1;fill-rule:nonzero;stroke:#000000;stroke-width:1.91999996;stroke-linecap:round;stroke-linejoin:round;stroke-miterlimit:4;stroke-dasharray:none;stroke-opacity:1"
           id="path44"
           inkscape:connector-curvature="0" /></g><g
         id="g46"
         transform="matrix(1,0,0,-1,0,457.75992)"><path
           d="m 163.309,163.613 c 0,9.235 -7.625,16.719 -17.028,16.719 -9.402,0 -17.023,-7.484 -17.023,-16.719 0,-9.234 7.621,-16.722 17.023,-16.722 9.403,0 17.028,7.488 17.028,16.722 z"
           style="fill:#ffffff;fill-opacity:1;fill-rule:nonzero;stroke:#000000;stroke-width:1.91999996;stroke-linecap:round;stroke-linejoin:round;stroke-miterlimit:4;stroke-dasharray:none;stroke-opacity:1"
           id="path48"
           inkscape:connector-curvature="0" /></g><g
         id="g50"
         transform="matrix(1,0,0,-1,0,457.75992)"><path
           d="m 645.793,163.613 c 0,9.235 -7.625,16.719 -17.027,16.719 -9.403,0 -17.024,-7.484 -17.024,-16.719 0,-9.234 7.621,-16.722 17.024,-16.722 9.402,0 17.027,7.488 17.027,16.722 z"
           style="fill:#ffffff;fill-opacity:1;fill-rule:nonzero;stroke:#000000;stroke-width:1.91999996;stroke-linecap:round;stroke-linejoin:round;stroke-miterlimit:4;stroke-dasharray:none;stroke-opacity:1"
           id="path52"
           inkscape:connector-curvature="0" /></g><g
         id="g54"
         transform="matrix(1,0,0,-1,0,457.75992)"><path
           d="m 324.137,163.613 c 0,9.235 -7.625,16.719 -17.028,16.719 -9.402,0 -17.023,-7.484 -17.023,-16.719 0,-9.234 7.621,-16.722 17.023,-16.722 9.403,0 17.028,7.488 17.028,16.722 z"
           style="fill:#ffffff;fill-opacity:1;fill-rule:nonzero;stroke:#000000;stroke-width:1.91999996;stroke-linecap:round;stroke-linejoin:round;stroke-miterlimit:4;stroke-dasharray:none;stroke-opacity:1"
           id="path56"
           inkscape:connector-curvature="0" /></g><g
         id="g58"
         transform="matrix(1,0,0,-1,0,457.75992)"><path
           d="m 484.965,163.613 c 0,9.235 -7.625,16.719 -17.027,16.719 -9.403,0 -17.024,-7.484 -17.024,-16.719 0,-9.234 7.621,-16.722 17.024,-16.722 9.402,0 17.027,7.488 17.027,16.722 z"
           style="fill:#ffffff;fill-opacity:1;fill-rule:nonzero;stroke:#000000;stroke-width:1.91999996;stroke-linecap:round;stroke-linejoin:round;stroke-miterlimit:4;stroke-dasharray:none;stroke-opacity:1"
           id="path60"
           inkscape:connector-curvature="0" /></g><g
         id="g62"
         transform="matrix(1,0,0,-1,0,457.75992)"><path
           d="m 163.309,18.594 c 0,9.234 -7.625,16.722 -17.028,16.722 -9.402,0 -17.023,-7.488 -17.023,-16.722 0,-9.235 7.621,-16.723 17.023,-16.723 9.403,0 17.028,7.488 17.028,16.723 z"
           style="fill:#ffffff;fill-opacity:1;fill-rule:nonzero;stroke:#000000;stroke-width:1.91999996;stroke-linecap:round;stroke-linejoin:round;stroke-miterlimit:4;stroke-dasharray:none;stroke-opacity:1"
           id="path64"
           inkscape:connector-curvature="0" /></g><g
         id="g66"
         transform="matrix(1,0,0,-1,0,457.75992)"><path
           d="m 243.723,18.594 c 0,9.234 -7.625,16.722 -17.028,16.722 -9.402,0 -17.023,-7.488 -17.023,-16.722 0,-9.235 7.621,-16.723 17.023,-16.723 9.403,0 17.028,7.488 17.028,16.723 z"
           style="fill:#ffffff;fill-opacity:1;fill-rule:nonzero;stroke:#000000;stroke-width:1.91999996;stroke-linecap:round;stroke-linejoin:round;stroke-miterlimit:4;stroke-dasharray:none;stroke-opacity:1"
           id="path68"
           inkscape:connector-curvature="0" /></g><g
         id="g70"
         transform="matrix(1,0,0,-1,0,457.75992)"><path
           d="m 404.551,18.594 c 0,9.234 -7.625,16.722 -17.028,16.722 -9.402,0 -17.023,-7.488 -17.023,-16.722 0,-9.235 7.621,-16.723 17.023,-16.723 9.403,0 17.028,7.488 17.028,16.723 z"
           style="fill:#ffffff;fill-opacity:1;fill-rule:nonzero;stroke:#000000;stroke-width:1.91999996;stroke-linecap:round;stroke-linejoin:round;stroke-miterlimit:4;stroke-dasharray:none;stroke-opacity:1"
           id="path72"
           inkscape:connector-curvature="0" /></g><g
         id="g74"
         transform="matrix(1,0,0,-1,0,457.75992)"><path
           d="m 565.379,18.594 c 0,9.234 -7.625,16.722 -17.027,16.722 -9.403,0 -17.024,-7.488 -17.024,-16.722 0,-9.235 7.621,-16.723 17.024,-16.723 9.402,0 17.027,7.488 17.027,16.723 z"
           style="fill:#ffffff;fill-opacity:1;fill-rule:nonzero;stroke:#000000;stroke-width:1.91999996;stroke-linecap:round;stroke-linejoin:round;stroke-miterlimit:4;stroke-dasharray:none;stroke-opacity:1"
           id="path76"
           inkscape:connector-curvature="0" /></g><g
         id="g78"
         transform="matrix(1,0,0,-1,0,457.75992)"><path
           d="m 324.137,18.594 c 0,9.234 -7.625,16.722 -17.028,16.722 -9.402,0 -17.023,-7.488 -17.023,-16.722 0,-9.235 7.621,-16.723 17.023,-16.723 9.403,0 17.028,7.488 17.028,16.723 z"
           style="fill:#ffffff;fill-opacity:1;fill-rule:nonzero;stroke:#000000;stroke-width:1.91999996;stroke-linecap:round;stroke-linejoin:round;stroke-miterlimit:4;stroke-dasharray:none;stroke-opacity:1"
           id="path80"
           inkscape:connector-curvature="0" /></g><g
         id="g82"
         transform="matrix(1,0,0,-1,0,457.75992)"><path
           d="m 484.965,18.594 c 0,9.234 -7.625,16.722 -17.027,16.722 -9.403,0 -17.024,-7.488 -17.024,-16.722 0,-9.235 7.621,-16.723 17.024,-16.723 9.402,0 17.027,7.488 17.027,16.723 z"
           style="fill:#ffffff;fill-opacity:1;fill-rule:nonzero;stroke:#000000;stroke-width:1.91999996;stroke-linecap:round;stroke-linejoin:round;stroke-miterlimit:4;stroke-dasharray:none;stroke-opacity:1"
           id="path84"
           inkscape:connector-curvature="0" /></g><g
         id="g86"
         transform="matrix(1,0,0,-1,0,457.75992)"><path
           d="m 645.793,18.594 c 0,9.234 -7.625,16.722 -17.027,16.722 -9.403,0 -17.024,-7.488 -17.024,-16.722 0,-9.235 7.621,-16.723 17.024,-16.723 9.402,0 17.027,7.488 17.027,16.723 z"
           style="fill:#ffffff;fill-opacity:1;fill-rule:nonzero;stroke:#000000;stroke-width:1.91999996;stroke-linecap:round;stroke-linejoin:round;stroke-miterlimit:4;stroke-dasharray:none;stroke-opacity:1"
           id="path88"
           inkscape:connector-curvature="0" /></g><g
         id="g90"
         transform="matrix(1,0,0,-1,0,457.75992)"><path
           d="m 726.207,18.594 c 0,9.234 -7.625,16.722 -17.027,16.722 -9.403,0 -17.024,-7.488 -17.024,-16.722 0,-9.235 7.621,-16.723 17.024,-16.723 9.402,0 17.027,7.488 17.027,16.723 z"
           style="fill:#ffffff;fill-opacity:1;fill-rule:nonzero;stroke:#000000;stroke-width:1.91999996;stroke-linecap:round;stroke-linejoin:round;stroke-miterlimit:4;stroke-dasharray:none;stroke-opacity:1"
           id="path92"
           inkscape:connector-curvature="0" /></g><g
         id="g94"
         transform="matrix(1,0,0,-1,0,457.75992)"><path
           d="m 806.617,18.594 c 0,9.234 -7.621,16.722 -17.023,16.722 -9.403,0 -17.024,-7.488 -17.024,-16.722 0,-9.235 7.621,-16.723 17.024,-16.723 9.402,0 17.023,7.488 17.023,16.723 z"
           style="fill:#ffffff;fill-opacity:1;fill-rule:nonzero;stroke:#000000;stroke-width:1.91999996;stroke-linecap:round;stroke-linejoin:round;stroke-miterlimit:4;stroke-dasharray:none;stroke-opacity:1"
           id="path96"
           inkscape:connector-curvature="0" /></g><g
         id="g98"
         transform="matrix(1,0,0,-1,0,457.75992)"><path
           d="m 163.309,308.629 c 0,9.238 -7.625,16.723 -17.028,16.723 -9.402,0 -17.023,-7.485 -17.023,-16.723 0,-9.234 7.621,-16.719 17.023,-16.719 9.403,0 17.028,7.485 17.028,16.719 z"
           style="fill:#ffffff;fill-opacity:1;fill-rule:nonzero;stroke:#000000;stroke-width:1.91999996;stroke-linecap:round;stroke-linejoin:round;stroke-miterlimit:4;stroke-dasharray:none;stroke-opacity:1"
           id="path100"
           inkscape:connector-curvature="0" /></g><g
         id="g102"
         transform="matrix(1,0,0,-1,0,457.75992)"><path
           d="m 243.723,308.629 c 0,9.238 -7.625,16.723 -17.028,16.723 -9.402,0 -17.023,-7.485 -17.023,-16.723 0,-9.234 7.621,-16.719 17.023,-16.719 9.403,0 17.028,7.485 17.028,16.719 z"
           style="fill:#ffffff;fill-opacity:1;fill-rule:nonzero;stroke:#000000;stroke-width:1.91999996;stroke-linecap:round;stroke-linejoin:round;stroke-miterlimit:4;stroke-dasharray:none;stroke-opacity:1"
           id="path104"
           inkscape:connector-curvature="0" /></g><g
         id="g106"
         transform="matrix(1,0,0,-1,0,457.75992)"><path
           d="m 404.551,308.629 c 0,9.238 -7.625,16.723 -17.028,16.723 -9.402,0 -17.023,-7.485 -17.023,-16.723 0,-9.234 7.621,-16.719 17.023,-16.719 9.403,0 17.028,7.485 17.028,16.719 z"
           style="fill:#ffffff;fill-opacity:1;fill-rule:nonzero;stroke:#000000;stroke-width:1.91999996;stroke-linecap:round;stroke-linejoin:round;stroke-miterlimit:4;stroke-dasharray:none;stroke-opacity:1"
           id="path108"
           inkscape:connector-curvature="0" /></g><g
         id="g110"
         transform="matrix(1,0,0,-1,0,457.75992)"><path
           d="m 565.379,308.629 c 0,9.238 -7.625,16.723 -17.027,16.723 -9.403,0 -17.024,-7.485 -17.024,-16.723 0,-9.234 7.621,-16.719 17.024,-16.719 9.402,0 17.027,7.485 17.027,16.719 z"
           style="fill:#ffffff;fill-opacity:1;fill-rule:nonzero;stroke:#000000;stroke-width:1.91999996;stroke-linecap:round;stroke-linejoin:round;stroke-miterlimit:4;stroke-dasharray:none;stroke-opacity:1"
           id="path112"
           inkscape:connector-curvature="0" /></g><g
         id="g114"
         transform="matrix(1,0,0,-1,0,457.75992)"><path
           d="m 324.137,308.629 c 0,9.238 -7.625,16.723 -17.028,16.723 -9.402,0 -17.023,-7.485 -17.023,-16.723 0,-9.234 7.621,-16.719 17.023,-16.719 9.403,0 17.028,7.485 17.028,16.719 z"
           style="fill:#ffffff;fill-opacity:1;fill-rule:nonzero;stroke:#000000;stroke-width:1.91999996;stroke-linecap:round;stroke-linejoin:round;stroke-miterlimit:4;stroke-dasharray:none;stroke-opacity:1"
           id="path116"
           inkscape:connector-curvature="0" /></g><g
         id="g118"
         transform="matrix(1,0,0,-1,0,457.75992)"><path
           d="m 484.965,308.629 c 0,9.238 -7.625,16.723 -17.027,16.723 -9.403,0 -17.024,-7.485 -17.024,-16.723 0,-9.234 7.621,-16.719 17.024,-16.719 9.402,0 17.027,7.485 17.027,16.719 z"
           style="fill:#ffffff;fill-opacity:1;fill-rule:nonzero;stroke:#000000;stroke-width:1.91999996;stroke-linecap:round;stroke-linejoin:round;stroke-miterlimit:4;stroke-dasharray:none;stroke-opacity:1"
           id="path120"
           inkscape:connector-curvature="0" /></g><g
         id="g122"
         transform="matrix(1,0,0,-1,0,457.75992)"><path
           d="m 645.793,308.629 c 0,9.238 -7.625,16.723 -17.027,16.723 -9.403,0 -17.024,-7.485 -17.024,-16.723 0,-9.234 7.621,-16.719 17.024,-16.719 9.402,0 17.027,7.485 17.027,16.719 z"
           style="fill:#ffffff;fill-opacity:1;fill-rule:nonzero;stroke:#000000;stroke-width:1.91999996;stroke-linecap:round;stroke-linejoin:round;stroke-miterlimit:4;stroke-dasharray:none;stroke-opacity:1"
           id="path124"
           inkscape:connector-curvature="0" /></g><g
         id="g126"
         transform="matrix(1,0,0,-1,0,457.75992)"><path
           d="m 726.207,308.629 c 0,9.238 -7.625,16.723 -17.027,16.723 -9.403,0 -17.024,-7.485 -17.024,-16.723 0,-9.234 7.621,-16.719 17.024,-16.719 9.402,0 17.027,7.485 17.027,16.719 z"
           style="fill:#ffffff;fill-opacity:1;fill-rule:nonzero;stroke:#000000;stroke-width:1.91999996;stroke-linecap:round;stroke-linejoin:round;stroke-miterlimit:4;stroke-dasharray:none;stroke-opacity:1"
           id="path128"
           inkscape:connector-curvature="0" /></g><g
         id="g130"
         transform="matrix(1,0,0,-1,0,457.75992)"><path
           d="m 806.617,308.629 c 0,9.238 -7.621,16.723 -17.023,16.723 -9.403,0 -17.024,-7.485 -17.024,-16.723 0,-9.234 7.621,-16.719 17.024,-16.719 9.402,0 17.023,7.485 17.023,16.719 z"
           style="fill:#ffffff;fill-opacity:1;fill-rule:nonzero;stroke:#000000;stroke-width:1.91999996;stroke-linecap:round;stroke-linejoin:round;stroke-miterlimit:4;stroke-dasharray:none;stroke-opacity:1"
           id="path132"
           inkscape:connector-curvature="0" /></g><g
         id="g134"
         transform="matrix(1,0,0,-1,0,457.75992)"><path
           d="m 806.617,163.613 c 0,9.235 -7.621,16.719 -17.023,16.719 -9.403,0 -17.024,-7.484 -17.024,-16.719 0,-9.234 7.621,-16.722 17.024,-16.722 9.402,0 17.023,7.488 17.023,16.722 z"
           style="fill:#ffffff;fill-opacity:1;fill-rule:nonzero;stroke:#000000;stroke-width:1.91999996;stroke-linecap:round;stroke-linejoin:round;stroke-miterlimit:4;stroke-dasharray:none;stroke-opacity:1"
           id="path136"
           inkscape:connector-curvature="0" /></g><g
         id="g138"
         transform="matrix(1,0,0,-1,0,457.75992)"><path
           d="m 806.617,421.117 c 0,9.238 -7.621,16.723 -17.023,16.723 -9.403,0 -17.024,-7.485 -17.024,-16.723 0,-9.234 7.621,-16.719 17.024,-16.719 9.402,0 17.023,7.485 17.023,16.719 z"
           style="fill:#ffffff;fill-opacity:1;fill-rule:nonzero;stroke:#000000;stroke-width:1.91999996;stroke-linecap:round;stroke-linejoin:round;stroke-miterlimit:4;stroke-dasharray:none;stroke-opacity:1"
           id="path140"
           inkscape:connector-curvature="0" /></g><g
         id="g142"
         transform="matrix(1,0,0,-1,0,457.75992)"><path
           d="m 35.012,421.117 c 0,9.238 -7.625,16.723 -17.028,16.723 -9.402,0 -17.023,-7.485 -17.023,-16.723 0,-9.234 7.621,-16.719 17.023,-16.719 9.403,0 17.028,7.485 17.028,16.719 z"
           style="fill:#ffffff;fill-opacity:1;fill-rule:nonzero;stroke:#000000;stroke-width:1.91999996;stroke-linecap:round;stroke-linejoin:round;stroke-miterlimit:4;stroke-dasharray:none;stroke-opacity:1"
           id="path144"
           inkscape:connector-curvature="0" /></g><text
         transform="matrix(1,0,0,-1,7.648468,433.9778)"
         style="font-variant:normal;font-weight:normal;font-size:16px;font-family:Verdana;-inkscape-font-specification:Verdana;writing-mode:lr-tb;fill:#000000;fill-opacity:1;fill-rule:nonzero;stroke:none"
         id="text146"><tspan
           x="0 10.16"
           y="0"
           sodipodi:role="line"
           id="tspan148">26</tspan><tspan
           x="65.70768"
           y="-0.60804802"
           id="tspan150">0</tspan><tspan
           x="133.20409 213.81207"
           y="0.242184"
           sodipodi:role="line"
           id="tspan152">12</tspan><tspan
           x="294.37149"
           y="1.110223e-016"
           id="tspan154">3</tspan><tspan
           x="374.39209"
           y="0.242184"
           id="tspan156">4</tspan><tspan
           x="455.242"
           y="1.110223e-016"
           id="tspan158">5</tspan><tspan
           x="535.18835"
           y="0.60804802"
           id="tspan160">6</tspan><tspan
           x="616.29224"
           y="-0.36586401"
           id="tspan162">7</tspan><tspan
           x="696.88177"
           y="-0.02344"
           id="tspan164">8</tspan><tspan
           x="776.85156"
           y="0.015624"
           id="tspan166">9</tspan><tspan
           x="128.06804 138.22803"
           y="144.73022"
           sodipodi:role="line"
           id="tspan168">10</tspan><tspan
           x="287.98373 298.14374"
           y="143.51414"
           sodipodi:role="line"
           id="tspan170">11</tspan><tspan
           x="449.7236 459.88361 610.2196 620.37958"
           y="144.12219"
           sodipodi:role="line"
           id="tspan172">1213</tspan><tspan
           x="770.16309 780.32306"
           y="144.73022"
           sodipodi:role="line"
           id="tspan174">14</tspan><tspan
           x="128.06804 138.22803"
           y="288.83679"
           sodipodi:role="line"
           id="tspan176">15</tspan><tspan
           x="207.72188 217.88187"
           y="289.44485"
           sodipodi:role="line"
           id="tspan178">16</tspan><tspan
           x="288.5918 298.7518"
           y="288.83679"
           sodipodi:role="line"
           id="tspan180">17</tspan><tspan
           x="368.85367 379.01367"
           y="289.44485"
           sodipodi:role="line"
           id="tspan182">18</tspan><tspan
           x="448.50751 458.66751 530.57153 540.73151"
           y="290.05289"
           sodipodi:role="line"
           id="tspan184">1920</tspan><tspan
           x="612.07147 622.23145"
           y="289.44485"
           sodipodi:role="line"
           id="tspan186">21</tspan><tspan
           x="691.72534 701.88531 771.3573 781.51733"
           y="290.05289"
           sodipodi:role="line"
           id="tspan188">2223</tspan><tspan
           x="771.98718 782.14716 -0.229376 9.930624"
           y="401.93307"
           sodipodi:role="line"
           id="tspan190">2425</tspan></text>
<text
         transform="matrix(1,0,0,-1,211.95102,404.99549)"
         style="font-style:italic;font-variant:normal;font-size:12px;font-family:Verdana;-inkscape-font-specification:Verdana-Italic;writing-mode:lr-tb;fill:#000000;fill-opacity:1;fill-rule:nonzero;stroke:none"
         id="text192"><tspan
           x="0 10.104 17.724001 22.08"
           y="0"
           sodipodi:role="line"
           id="tspan194">M1.1</tspan><tspan
           x="160.85222 170.95621 178.57622 182.93221 321.70444 331.80844 339.42844 343.78445"
           y="0.1523436"
           sodipodi:role="line"
           id="tspan196">M2.1M3.1</tspan><tspan
           x="482.55667 492.66068 500.28067 504.63666"
           y="0"
           sodipodi:role="line"
           id="tspan198">M4.1</tspan><tspan
           x="-2.054832 8.0491676 15.669168 20.025167 160.29309 170.39709 178.01709 182.37309 322.64099 332.74496 340.36499 344.72098 484.98883 495.09283 502.71283 507.06885"
           y="288.82114"
           sodipodi:role="line"
           id="tspan200">M1.2M2.2M3.2M4.2</tspan><tspan
           x="-157.08727 -149.50327 -146.21527 -138.63127 -131.17928 -123.97927 -116.39527"
           y="1.21608"
           sodipodi:role="line"
           id="tspan202">Eingang</tspan><tspan
           x="550.4502 558.63422 566.2182 572.45819 579.91022 587.11023 594.69421"
           y="402.51694"
           sodipodi:role="line"
           id="tspan204">Ausgang</tspan></text>
</g></g></svg>